<svg width="135" height="1200" viewBox="0 0 135 1200" xmlns="http://www.w3.org/2000/svg">
  <rect width="135" height="1200" fill="#2f6fa0"/>
  <rect x="119" y="0" width="16" height="1200" fill="#2a6290"/>
  <g>
    <rect x="69" y="18" width="52" height="52" fill="#4f94cd"/>
    <rect x="43" y="35" width="40" height="40" fill="#2a5f8e"/>
    <rect x="18" y="70" width="50" height="50" fill="#3f84bf"/>
    <rect x="56" y="86" width="48" height="48" fill="#24547e"/>
    <rect x="10" y="126" width="62" height="62" fill="#4a8ec6"/>
    <rect x="60" y="140" width="52" height="52" fill="#1f4a71"/>
    <rect x="22" y="194" width="44" height="44" fill="#60a8dc"/>
    <rect x="66" y="208" width="40" height="40" fill="#2d6a9c"/>

    <rect x="18" y="252" width="56" height="56" fill="#4d91c9"/>
    <rect x="60" y="267" width="42" height="42" fill="#2a5d89"/>
    <rect x="8" y="308" width="52" height="52" fill="#63afe4"/>
    <rect x="50" y="322" width="50" height="50" fill="#3d7fb7"/>
    <rect x="24" y="370" width="62" height="62" fill="#2f6fa0"/>
    <rect x="72" y="384" width="48" height="48" fill="#25577f"/>
    <rect x="14" y="436" width="52" height="52" fill="#5ca7df"/>
    <rect x="56" y="450" width="44" height="44" fill="#2f6ea3"/>

    <rect x="22" y="504" width="58" height="58" fill="#4f94cd"/>
    <rect x="66" y="520" width="46" height="46" fill="#23517a"/>
    <rect x="12" y="566" width="48" height="48" fill="#3e82bb"/>
    <rect x="54" y="580" width="40" height="40" fill="#2a5f8e"/>
    <rect x="24" y="624" width="64" height="64" fill="#61abdf"/>
    <rect x="74" y="640" width="50" height="50" fill="#2c6799"/>
    <rect x="14" y="694" width="48" height="48" fill="#4d91c9"/>
    <rect x="58" y="708" width="42" height="42" fill="#24547e"/>

    <rect x="20" y="758" width="58" height="58" fill="#3f84bf"/>
    <rect x="68" y="772" width="50" height="50" fill="#2a5d89"/>
    <rect x="10" y="824" width="52" height="52" fill="#5fa9dd"/>
    <rect x="52" y="838" width="46" height="46" fill="#2f6ea3"/>
    <rect x="24" y="892" width="62" height="62" fill="#4b8fc8"/>
    <rect x="72" y="906" width="50" height="50" fill="#1f4a71"/>
    <rect x="14" y="960" width="52" height="52" fill="#67b2e6"/>
    <rect x="58" y="974" width="42" height="42" fill="#3d7fb7"/>

    <rect x="22" y="1030" width="58" height="58" fill="#4f94cd"/>
    <rect x="68" y="1046" width="46" height="46" fill="#2a5f8e"/>
    <rect x="12" y="1094" width="48" height="48" fill="#3e82bb"/>
    <rect x="56" y="1108" width="40" height="40" fill="#24547e"/>
  </g>
</svg>