<svg width="135" height="1200" viewBox="0 0 135 1200" xmlns="http://www.w3.org/2000/svg">
  <rect width="135" height="1200" fill="#2f6fa0"/>
  <rect x="0" y="0" width="16" height="1200" fill="#2a6290"/>
  <g>
    <rect x="14" y="22" width="52" height="52" fill="#4f94cd"/>
    <rect x="49" y="38" width="40" height="40" fill="#2a5f8e"/>
    <rect x="20" y="78" width="48" height="48" fill="#3f84bf"/>
    <rect x="62" y="93" width="36" height="36" fill="#24547e"/>
    <rect x="8" y="128" width="60" height="60" fill="#4a8ec6"/>
    <rect x="58" y="142" width="52" height="52" fill="#1f4a71"/>
    <rect x="24" y="192" width="44" height="44" fill="#60a8dc"/>
    <rect x="70" y="205" width="40" height="40" fill="#2d6a9c"/>

    <rect x="14" y="252" width="56" height="56" fill="#4d91c9"/>
    <rect x="52" y="266" width="42" height="42" fill="#2a5d89"/>
    <rect x="22" y="308" width="50" height="50" fill="#63afe4"/>
    <rect x="66" y="322" width="46" height="46" fill="#3d7fb7"/>
    <rect x="10" y="366" width="62" height="62" fill="#2f6fa0"/>
    <rect x="54" y="380" width="50" height="50" fill="#25577f"/>
    <rect x="18" y="432" width="52" height="52" fill="#5ca7df"/>
    <rect x="64" y="447" width="42" height="42" fill="#2f6ea3"/>

    <rect x="12" y="500" width="58" height="58" fill="#4f94cd"/>
    <rect x="58" y="516" width="46" height="46" fill="#23517a"/>
    <rect x="26" y="564" width="46" height="46" fill="#3e82bb"/>
    <rect x="72" y="578" width="38" height="38" fill="#2a5f8e"/>
    <rect x="8" y="620" width="64" height="64" fill="#61abdf"/>
    <rect x="56" y="636" width="54" height="54" fill="#2c6799"/>
    <rect x="24" y="692" width="48" height="48" fill="#4d91c9"/>
    <rect x="68" y="706" width="40" height="40" fill="#24547e"/>

    <rect x="10" y="758" width="58" height="58" fill="#3f84bf"/>
    <rect x="50" y="772" width="52" height="52" fill="#2a5d89"/>
    <rect x="20" y="826" width="50" height="50" fill="#5fa9dd"/>
    <rect x="66" y="840" width="46" height="46" fill="#2f6ea3"/>
    <rect x="6" y="890" width="62" height="62" fill="#4b8fc8"/>
    <rect x="54" y="904" width="52" height="52" fill="#1f4a71"/>
    <rect x="18" y="958" width="52" height="52" fill="#67b2e6"/>
    <rect x="62" y="972" width="42" height="42" fill="#3d7fb7"/>

    <rect x="10" y="1030" width="58" height="58" fill="#4f94cd"/>
    <rect x="58" y="1046" width="46" height="46" fill="#2a5f8e"/>
    <rect x="24" y="1094" width="46" height="46" fill="#3e82bb"/>
    <rect x="68" y="1108" width="40" height="40" fill="#24547e"/>
  </g>
</svg>