<svg width="150" height="900" viewBox="0 0 150 900" xmlns="http://www.w3.org/2000/svg">
  <rect width="150" height="900" fill="#2f6fa0"/>
  <g opacity="0.95">
    <rect x="84" y="20" width="54" height="54" fill="#4c97d1"/>
    <rect x="30" y="58" width="62" height="62" fill="#245d8b"/>
    <rect x="56" y="112" width="68" height="68" fill="#5ca7df"/>
    <rect x="14" y="160" width="58" height="58" fill="#2b6a9f"/>
    <rect x="78" y="208" width="64" height="64" fill="#4d98d2"/>
    <rect x="14" y="256" width="72" height="72" fill="#1f4a71"/>
    <rect x="78" y="318" width="52" height="52" fill="#63afe4"/>
    <rect x="18" y="352" width="60" height="60" fill="#2e6fa8"/>
    <rect x="66" y="406" width="66" height="66" fill="#4d98d2"/>
    <rect x="14" y="460" width="56" height="56" fill="#2a5f8f"/>
    <rect x="78" y="510" width="62" height="62" fill="#5ca7df"/>
    <rect x="12" y="558" width="70" height="70" fill="#245d8b"/>
    <rect x="72" y="628" width="58" height="58" fill="#63afe4"/>
    <rect x="16" y="674" width="60" height="60" fill="#2b6a9f"/>
    <rect x="70" y="730" width="66" height="66" fill="#4c97d1"/>
    <rect x="14" y="786" width="62" height="62" fill="#1f4a71"/>
  </g>
</svg>